<svg width="33" height="32" viewBox="0 0 33 32" fill="none" xmlns="http://www.w3.org/2000/svg">
<path d="M27.0391 15.9553H5.96091C5.13081 15.9553 4.45532 16.6308 4.45532 17.4609C4.45532 18.291 5.13081 18.9665 5.96091 18.9665H27.0391C27.8692 18.9665 28.5447 18.291 28.5447 17.4609C28.5447 16.6308 27.8692 15.9553 27.0391 15.9553Z" fill="#888B97"/>
<path d="M27.1775 17.9819C26.9055 17.9056 26.6325 18.0602 26.5572 18.3272L26.5181 18.4647H6.48276L6.44263 18.3272C6.36735 18.0602 6.09234 17.9076 5.82233 17.9819C5.55532 18.0581 5.40175 18.3362 5.47807 18.6022L6.86118 23.4441C7.28975 24.9447 8.67894 25.9926 10.2387 25.9926H22.7601C24.3209 25.9926 25.7091 24.9447 26.1377 23.4441L27.5208 18.6022C27.5981 18.3362 27.4435 18.0581 27.1775 17.9819ZM10.2397 23.9851C9.57123 23.9851 8.97502 23.5364 8.79233 22.893L8.14093 20.6106C8.06466 20.3436 8.21922 20.0665 8.48519 19.9903C8.75417 19.914 9.03021 20.0695 9.10549 20.3356L9.75689 22.618C9.81913 22.8318 10.0168 22.9824 10.2397 22.9824C10.5167 22.9824 10.7415 23.2072 10.7415 23.4843C10.7416 23.7613 10.5167 23.9851 10.2397 23.9851Z" fill="#888B97"/>
<path d="M11.2034 25.0411C10.9554 24.9197 10.6553 25.017 10.5298 25.266L9.52613 27.2734C9.40267 27.5213 9.50303 27.8224 9.75098 27.9469C9.82423 27.9831 9.90055 28.0001 9.97583 28.0001C10.1595 28.0001 10.3362 27.8987 10.4245 27.7221L11.4282 25.7147C11.5517 25.4667 11.4513 25.1655 11.2034 25.0411Z" fill="#888B97"/>
<path d="M23.4738 27.2743L22.4701 25.2668C22.3456 25.0179 22.0445 24.9185 21.7966 25.042C21.5487 25.1664 21.4483 25.4676 21.5717 25.7155L22.5754 27.723C22.6637 27.8986 22.8404 28 23.0241 28C23.0994 28 23.1756 27.9829 23.2489 27.9478C23.4969 27.8233 23.5972 27.5222 23.4738 27.2743Z" fill="#888B97"/>
<path d="M24.6151 4C24.1032 4 23.6214 4.19973 23.2591 4.5621L21.6662 6.15501C21.4705 6.35073 21.4705 6.66893 21.6662 6.86465C21.8619 7.06038 22.1801 7.06038 22.3758 6.86465L23.9687 5.27274C24.1403 5.10011 24.3702 5.00474 24.6201 5.00474C25.124 5.00474 25.5335 5.41426 25.5335 5.91811V16.4572C25.5335 16.7342 25.7583 16.9591 26.0354 16.9591C26.3124 16.9591 26.5372 16.7342 26.5382 16.4562V5.91713C26.5383 4.86021 25.6791 4 24.6151 4Z" fill="#888B97"/>
<path d="M22.8776 6.65681L21.8739 5.65311C21.7594 5.53868 21.5998 5.48547 21.4372 5.51257L18.9279 5.92411C18.7433 5.95422 18.5917 6.08469 18.5325 6.26136C18.4733 6.43803 18.5184 6.63475 18.6489 6.76822L21.6601 9.86973C21.7555 9.9691 21.8869 10.0223 22.0194 10.0223C22.0666 10.0223 22.1148 10.0153 22.1619 10.0012C22.3406 9.94905 22.4761 9.80151 22.5122 9.61881L23.0141 7.10952C23.0472 6.94588 22.996 6.77622 22.8776 6.65681Z" fill="#888B97"/>
<path d="M16.3525 10.0806C16.1567 9.88491 15.8385 9.88491 15.6428 10.0806L14.6391 11.0843C14.4434 11.2801 14.4434 11.5983 14.6391 11.794C14.7375 11.8913 14.8659 11.9405 14.9944 11.9405C15.1229 11.9405 15.2514 11.8914 15.3488 11.794L16.3525 10.7903C16.5482 10.5945 16.5482 10.2764 16.3525 10.0806Z" fill="#888B97"/>
<path d="M18.3598 12.088C18.1641 11.8922 17.8459 11.8922 17.6502 12.088L16.6465 13.0917C16.4508 13.2874 16.4508 13.6056 16.6465 13.8013C16.7449 13.8987 16.8733 13.9479 17.0018 13.9479C17.1303 13.9479 17.2587 13.8987 17.3561 13.8013L18.3598 12.7976C18.5556 12.6019 18.5556 12.2837 18.3598 12.088Z" fill="#888B97"/>
<path d="M19.3636 9.07673C19.1679 8.881 18.8497 8.881 18.654 9.07673L17.6503 10.0804C17.4545 10.2762 17.4545 10.5944 17.6503 10.7901C17.7487 10.8874 17.8771 10.9366 18.0056 10.9366C18.1341 10.9366 18.2625 10.8875 18.3599 10.7901L19.3636 9.78637C19.5594 9.59065 19.5594 9.27245 19.3636 9.07673Z" fill="#888B97"/>
</svg>
