<svg width="24" height="24" viewBox="0 0 24 24" fill="none" xmlns="http://www.w3.org/2000/svg">
<path d="M8.38436 2.47912C8.90946 2.3208 9.47295 2.34711 9.98101 2.55365C10.4891 2.7602 10.9111 3.13453 11.1768 3.61432L11.2668 3.79312L12.06 5.55832C12.3011 6.09411 12.3793 6.68894 12.285 7.26885C12.1907 7.84876 11.928 8.38814 11.5296 8.81992L11.3712 8.97832L10.1184 10.1459C9.89276 10.3595 10.062 11.1863 10.8792 12.5999C11.6124 13.8719 12.2112 14.4659 12.504 14.4983H12.5556L12.6192 14.4863L15.0792 13.7339C15.4098 13.6325 15.7626 13.6285 16.0954 13.7224C16.4283 13.8162 16.727 14.004 16.956 14.2631L17.0664 14.4011L18.6936 16.6571C19.0129 17.0992 19.1721 17.6368 19.1451 18.1814C19.118 18.7261 18.9063 19.2453 18.5448 19.6535L18.3984 19.8047L17.7468 20.4215C17.1627 20.9746 16.4321 21.3484 15.6418 21.4984C14.8516 21.6483 14.0348 21.5682 13.2888 21.2675C10.9668 20.3315 8.85716 18.1931 6.94076 14.8739C5.02076 11.5463 4.22276 8.64592 4.57916 6.16192C4.68712 5.41091 4.9965 4.70316 5.47443 4.11388C5.95237 3.52459 6.58101 3.07578 7.29356 2.81512L7.52516 2.73832L8.38436 2.47912Z" fill="white"/>
</svg>
