<svg width="24" height="24" viewBox="0 0 24 24" fill="none" xmlns="http://www.w3.org/2000/svg">
<path d="M21 10.8319V19.5C20.9998 19.7719 20.9261 20.0386 20.7868 20.272C20.6474 20.5054 20.4476 20.6968 20.2084 20.8259C19.9916 20.9432 19.7485 21.0031 19.502 20.9999H14.9967C14.7978 20.9999 14.607 20.9209 14.4664 20.7803C14.3257 20.6396 14.2467 20.4488 14.2467 20.2499V15.7493C14.2467 15.5504 14.1677 15.3596 14.027 15.2189C13.8864 15.0783 13.6956 14.9993 13.4967 14.9993H10.4967C10.2978 14.9993 10.107 15.0783 9.96637 15.2189C9.82571 15.3596 9.7467 15.5504 9.7467 15.7493V20.2499C9.7467 20.4488 9.66768 20.6396 9.52703 20.7803C9.38637 20.9209 9.19561 20.9999 8.9967 20.9999H4.50017C4.28751 21.0005 4.0772 20.9556 3.88332 20.8682C3.68944 20.7808 3.51648 20.653 3.37601 20.4934C3.12943 20.2082 2.99568 19.8427 2.99998 19.4657V10.8318C3.00014 10.6228 3.04389 10.4162 3.12843 10.225C3.21296 10.0339 3.33643 9.86251 3.49095 9.7218L10.9903 2.90308C11.2658 2.65075 11.6258 2.51078 11.9993 2.51074C12.3729 2.51071 12.7329 2.65062 13.0084 2.90289L20.5091 9.72189C20.6636 9.86263 20.787 10.034 20.8715 10.2252C20.9561 10.4163 20.9998 10.6229 21 10.8319Z" fill="#10B981"/>
</svg>
